{"title":"The.Heavy.2010.DVDRip.Xvid-DiVERSiTY","uid":6168373,"size":740358114,"categoryP":"video","categoryS":"movies","magnet":"?xt=urn:btih:86219c4d6d536bbd3868de4cdf4a1865fa590103&amp;dn=The.Heavy.2010.DVDRip.Xvid-DiVERSiTY&amp;tr=udp%3A%2F%2Ftracker.openbittorrent.com%3A80&amp;tr=udp%3A%2F%2Fopen.demonii.com%3A1337&amp;tr=udp%3A%2F%2Ftracker.coppersurfer.tk%3A6969&amp;tr=udp%3A%2F%2Fexodus.desync.com%3A6969","seeders":0,"leechers":1,"uploader":"sceneline","files":54,"time":1297470535,"description":"- &lt;a href=&quot;\nhttp://www.torrentkit.com&quot; rel=&quot;nofollow&quot; target=&quot;_NEW&quot;&gt;\nhttp://www.torrentkit.com&lt;/a&gt;  \n\nwho care what we share! support us by seeding back,\nand don't forget to visit www.torrentkit.com\n-File size                        : 702 MiB\nDuration                         : 1h 37mn\nOverall bit rate                 : 1 006 Kbps\n\n\nVideo\nID                               : 0\nFormat                           : MPEG-4 Visual\nFormat profile                   : Advanced Simple@L5\nFormat settings, BVOP            : Yes\nFormat settings, QPel            : No\nFormat settings, GMC             : No warppoints\nFormat settings, Matrix          : Default (H.263)\nCodec ID                         : XVID\nCodec ID/Hint                    : XviD\nDuration                         : 1h 37mn\nBit rate                         : 874 Kbps\nWidth                            : 624 pixels\nHeight                           : 336 pixels\nDisplay aspect ratio             : 1.857\nFrame rate                       : 25.000 fps\nColor space                      : YUV\nChroma subsampling               : 4:2:0\nBit depth                        : 8 bits\nScan type                        : Progressive\nCompression mode                 : Lossy\nBits/(Pixel*Frame)               : 0.167\nStream size                      : 610 MiB (87%)\nWriting library                  : XviD 1.2.1 (UTC 2008-12-04)\n\nAudio\nID                               : 1\nFormat                           : MPEG Audio\nFormat version                   : Version 1\nFormat profile                   : Layer 3\nMode                             : Joint stereo\nMode extension                   : MS Stereo\nCodec ID                         : 55\nCodec ID/Hint                    : MP3\nDuration                         : 1h 37mn\nBit rate mode                    : Constant\nBit rate                         : 128 Kbps\nChannel(s)                       : 2 channels\nSampling rate                    : 48.0 KHz\nCompression mode                 : Lossy\nStream size                      : 89.3 MiB (13%)\nAlignment                        : Aligned on interleaves\nInterleave, duration             : 809 ms (20.21 video frames)\nInterleave, preload duration     : 216 ms\nTitle                            : VTS_01_1 T80 3_2ch 448Kbps DELAY 0ms\nWriting library                  : LAME3.98r\nEncoding settings                : -m j -V 4 -q 2 -lowpass 17 -b 128\n\n\nImdb Link:http://www.imdb.com/title/tt0473364/","torrent":{"xt":"urn:btih:86219c4d6d536bbd3868de4cdf4a1865fa590103","amp;dn":"The.Heavy.2010.DVDRip.Xvid-DiVERSiTY","amp;tr":["udp%3A%2F%2Ftracker.openbittorrent.com%3A80","udp%3A%2F%2Fopen.demonii.com%3A1337","udp%3A%2F%2Ftracker.coppersurfer.tk%3A6969","udp%3A%2F%2Fexodus.desync.com%3A6969"],"infoHash":"86219c4d6d536bbd3868de4cdf4a1865fa590103","infoHashBuffer":{"type":"Buffer","data":[134,33,156,77,109,83,107,189,56,104,222,76,223,74,24,101,250,89,1,3]},"announce":[],"urlList":[]}}